# xmcd
# 
# Track frame offsets:
#     150
#     29829
#     51855
#     74438
#     102208
#     122727
#     155883
#     171210
#     194297
#     216235
# 
# Disc length: 3205
# 
# Revision: 3
# Processed by: cddbd v1.5.2PL0 Copyright (c) Steve Scherf et al.
# Submitted via: fre:ac v1.0.17
# 
DISCID=990c830a
DTITLE=Kyle Eastwood - Metropolitain
DYEAR=2009
DGENRE=Jazz
TTITLE0=Metropolitain
TTITLE1=Bold Changes
TTITLE2=Hot Box
TTITLE3=Black Light
TTITLE4=Bel Air
TTITLE5=Samba de Paris
TTITLE6=Song For You
TTITLE7=Rue Perdue
TTITLE8=Le Balai
TTITLE9=Live for Life
EXTD=YEAR: 2009
EXTT0=
EXTT1=
EXTT2=
EXTT3=
EXTT4=
EXTT5=
EXTT6=
EXTT7=
EXTT8=
EXTT9=
PLAYORDER=
